<svg width="36" height="36" viewBox="0 0 36 36" fill="none" xmlns="http://www.w3.org/2000/svg">
<g clip-path="url(#clip0_127_152)">
<path d="M21.1838 18.0013L35.3404 3.84478C36.2199 2.966 36.2199 1.54014 35.3404 0.661358C34.4608 -0.218174 33.0365 -0.218174 32.1569 0.661358L18.0004 14.8179L3.84307 0.661358C2.96354 -0.218174 1.53918 -0.218174 0.659649 0.661358C-0.219883 1.54014 -0.219883 2.966 0.659649 3.84478L14.817 18.0013L0.659649 32.1579C-0.219883 33.0367 -0.219883 34.4625 0.659649 35.3413C1.09941 35.7803 1.67576 36.0002 2.25136 36.0002C2.82696 36.0002 3.40331 35.7803 3.84307 35.3406L18.0004 21.184L32.1569 35.3406C32.5967 35.7803 33.173 36.0002 33.7486 36.0002C34.3242 36.0002 34.9006 35.7803 35.3404 35.3406C36.2199 34.4618 36.2199 33.0359 35.3404 32.1571L21.1838 18.0013Z" fill="#14123A"/>
</g>
<defs>
<clipPath id="clip0_127_152">
<rect width="36" height="36" fill="white"/>
</clipPath>
</defs>
</svg>
