<svg width="169" height="100" viewBox="0 0 169 100" fill="none" xmlns="http://www.w3.org/2000/svg">
<path d="M0 49.456L5.63333 53.6213C11.2667 57.8649 22.5333 66.0779 33.8 64.0638C45.0667 61.9717 56.3333 49.456 67.6 45.2906C78.8667 41.0471 90.1333 45.3493 101.4 53.6213C112.667 61.9717 123.933 74.4872 135.2 74.4872C146.467 74.4872 157.733 61.9717 163.367 55.7137L169 49.456V99.5184H163.367C157.733 99.5184 146.467 99.5184 135.2 99.5184C123.933 99.5184 112.667 99.5184 101.4 99.5184C90.1333 99.5184 78.8667 99.5184 67.6 99.5184C56.3333 99.5184 45.0667 99.5184 33.8 99.5184C22.5333 99.5184 11.2667 99.5184 5.63333 99.5184H0V49.456Z" fill="#FCC2F2"/>
<path d="M0 59.8043L4.02548 56.4948C8.05099 53.1853 16.0785 46.5663 24.1764 43.2568C32.1921 39.9473 40.2548 39.9473 48.2354 49.8758C56.3333 59.8043 64.4313 79.6616 72.412 84.0669C80.4744 88.5554 88.4901 77.3862 96.588 73.0425C104.616 68.6987 112.667 70.7671 120.765 76.352C128.757 81.9363 136.843 90.6238 144.823 88.4932C152.91 86.2801 160.902 73.0425 165.01 66.4234L169 59.8043V99.5183H164.974C160.949 99.5183 152.921 99.5183 144.823 99.5183C136.808 99.5183 128.745 99.5183 120.765 99.5183C112.667 99.5183 104.569 99.5183 96.588 99.5183C88.5256 99.5183 80.5099 99.5183 72.412 99.5183C64.3845 99.5183 56.3333 99.5183 48.2354 99.5183C40.2431 99.5183 32.1569 99.5183 24.1764 99.5183C16.0902 99.5183 8.09792 99.5183 3.99028 99.5183H0V59.8043Z" fill="url(#paint0_linear_124_58)"/>
<path d="M50.2493 36.168C48.3716 36.168 46.8318 35.6214 45.63 34.5282C44.4658 33.435 43.8837 31.9272 43.8837 30.0047C43.8837 28.1199 44.4094 26.612 45.461 25.4811C46.5501 24.3125 48.1462 23.7282 50.2493 23.7282H74.529C76.6319 23.7282 78.2093 24.3125 79.261 25.4811C80.3499 26.612 80.8947 28.1199 80.8947 30.0047C80.8947 31.9272 80.2936 33.435 79.092 34.5282C77.9276 35.6214 76.4066 36.168 74.529 36.168C73.2519 36.168 72.2193 36.0361 71.4307 35.7722C70.6797 35.4706 70.0601 35.1314 69.5717 34.7544C69.0833 34.3398 68.614 34.0005 68.1633 33.7366C67.7127 33.435 67.1493 33.2842 66.4733 33.2842L65.9663 34.302C66.1167 34.6413 66.3793 35.1314 66.755 35.7722C67.1307 36.3754 67.4873 37.2612 67.8253 38.4298C68.1633 39.5607 68.3323 41.1062 68.3323 43.0664V59.4078C68.3323 60.9532 67.7504 62.235 66.586 63.2528C65.4593 64.2706 64.0696 64.7795 62.4173 64.7795C60.7273 64.7795 59.3004 64.2706 58.136 63.2528C57.0093 62.235 56.446 60.9532 56.446 59.4078V43.0664C56.446 41.1062 56.615 39.5607 56.953 38.4298C57.291 37.2612 57.6476 36.3754 58.0233 35.7722C58.4363 35.1314 58.7179 34.6413 58.8683 34.302L58.305 33.2842C57.629 33.2842 57.0657 33.435 56.615 33.7366C56.1643 34.0005 55.6949 34.3398 55.2067 34.7544C54.7184 35.1314 54.0988 35.4706 53.3477 35.7722C52.5966 36.0361 51.5638 36.168 50.2493 36.168ZM81.952 64.7795C79.1726 64.7795 76.9947 64.0258 75.4174 62.5177C73.8772 61.0097 73.1077 58.8989 73.1077 56.1848C73.1077 53.4706 74.009 51.5104 75.8117 50.3041C77.6144 49.0602 79.924 48.4382 82.7407 48.4382C84.393 48.4382 85.8954 48.5513 87.2474 48.7774C88.5994 49.0036 89.8196 49.324 90.909 49.7387H91.078V48.8905C91.078 48.0235 90.7586 47.345 90.1204 46.8549C89.4816 46.3272 88.6743 46.0821 87.698 46.1198C86.759 46.1198 85.9517 46.1764 85.2757 46.2895C84.6369 46.4026 83.8296 46.591 82.8534 46.8549C81.0507 47.3073 79.492 47.2696 78.1777 46.7418C76.8629 46.2141 75.9616 45.1774 75.4737 43.6319C75.023 42.0109 75.1166 40.6539 75.7554 39.5607C76.4314 38.4675 77.4454 37.6193 78.7974 37.0162C79.9612 36.4507 81.2569 35.9795 82.6844 35.6026C84.149 35.2256 85.7264 35.0371 87.4164 35.0371C92.336 35.0371 95.9413 36.2434 98.2324 38.656C100.561 41.0308 101.725 45.0267 101.725 50.6434V59.4078C101.725 60.9532 101.255 62.235 100.317 63.2528C99.3776 64.2706 98.082 64.7795 96.4297 64.7795C94.627 64.7795 93.275 64.2706 92.3737 63.2528C91.5096 62.235 91.078 60.991 91.078 59.5209V58.2204H89.9514C89.9514 59.2003 89.7632 60.1994 89.388 61.2172C89.05 62.235 88.3177 63.0832 87.191 63.7617C86.1016 64.4403 84.3552 64.7795 81.952 64.7795ZM82.5154 52.3963C82.5154 53.0371 82.7407 53.4895 83.1914 53.7533C83.6792 54.0172 84.7124 54.1492 86.2897 54.1492C87.7166 54.1492 88.712 54.0172 89.2754 53.7533C89.8387 53.4895 90.1204 53.0371 90.1204 52.3963C90.1204 51.7931 89.8387 51.3785 89.2754 51.1523C88.712 50.8884 87.7166 50.7565 86.2897 50.7565C84.7124 50.7565 83.6792 50.8884 83.1914 51.1523C82.7407 51.3785 82.5154 51.7931 82.5154 52.3963ZM118.288 65.5146C115.696 65.5146 113.293 65.2698 111.077 64.7795C108.899 64.252 107.152 63.4411 105.838 62.3481C104.524 61.2172 103.866 59.7284 103.866 57.8811C103.866 56.26 104.355 54.922 105.331 53.8664C106.307 52.8109 107.603 52.2832 109.218 52.2832C110.232 52.2832 111.246 52.4528 112.26 52.7921C113.312 53.0936 114.419 53.3953 115.584 53.6968C116.748 53.9984 118.006 54.1492 119.358 54.1492C120.56 54.1492 121.367 54.0926 121.78 53.9795C122.193 53.8287 122.4 53.5649 122.4 53.1879C122.4 52.7355 122.137 52.434 121.611 52.2832C121.123 52.1324 120.278 51.9439 119.076 51.7177L115.02 50.9261C113.33 50.5869 111.678 50.1533 110.063 49.6256C108.486 49.0602 107.171 48.2308 106.12 47.1376C105.106 46.0445 104.599 44.5554 104.599 42.6706C104.599 40.1073 105.725 38.1094 107.979 36.6769C110.27 35.2445 113.574 34.5282 117.893 34.5282C120.372 34.5282 122.588 34.7732 124.541 35.2633C126.531 35.7534 128.108 36.4884 129.273 37.4685C130.437 38.411 131.019 39.5984 131.019 41.0308C131.057 42.5764 130.643 43.8203 129.78 44.7628C128.916 45.7052 127.827 46.1764 126.512 46.1764C125.573 46.1764 124.616 46.0633 123.639 45.8371C122.7 45.5732 121.668 45.3094 120.541 45.0455C119.452 44.7439 118.194 44.5743 116.767 44.5366C115.753 44.4612 114.926 44.5178 114.288 44.7062C113.65 44.8947 113.33 45.1963 113.33 45.6109C113.33 46.0633 113.706 46.3837 114.457 46.5722C115.208 46.723 116.335 46.9303 117.837 47.1942L121.837 47.9293C124.278 48.3439 126.212 48.8717 127.639 49.5125C129.104 50.1157 130.155 50.9638 130.794 52.057C131.432 53.1502 131.751 54.6581 131.751 56.5806C131.751 58.5783 131.169 60.256 130.005 61.613C128.878 62.9322 127.301 63.9127 125.273 64.5533C123.245 65.194 120.917 65.5146 118.288 65.5146ZM139.922 64.7795C138.27 64.7795 136.955 64.2893 135.979 63.3094C135.002 62.2916 134.514 61.0476 134.514 59.5774V26.8382C134.514 25.2549 134.983 23.9167 135.922 22.8235C136.898 21.7303 138.27 21.1837 140.035 21.1837C141.762 21.1837 143.058 21.7303 143.922 22.8235C144.823 23.9167 145.274 25.2737 145.274 26.8947V44.0277L145.443 44.0842C145.63 42.501 146.119 41.0497 146.907 39.7303C147.696 38.3732 148.804 37.2801 150.231 36.4507C151.658 35.6214 153.404 35.2068 155.47 35.2068C158.249 35.2068 160.484 35.9795 162.174 37.5251C163.864 39.0706 164.709 41.1816 164.709 43.8581C164.709 45.7052 164.333 47.1754 163.582 48.2685C162.868 49.324 161.892 50.0591 160.653 50.4738C159.413 50.8884 158.043 51.0769 156.54 51.0392V52.0005C159.882 52.0005 162.248 52.679 163.638 54.0361C165.065 55.3554 165.779 57.0329 165.779 59.0685C165.779 60.9532 165.216 62.4047 164.089 63.4225C162.962 64.4403 161.61 64.9305 160.033 64.8926C158.305 64.8547 156.878 64.3458 155.752 63.3659C154.625 62.386 153.686 61.0662 152.935 59.4078L150.513 54.2622C150.024 53.2444 149.386 52.5094 148.597 52.057C147.846 51.6047 146.738 51.435 145.274 51.5481V59.5774C145.274 61.0476 144.785 62.2916 143.809 63.3094C142.87 64.2893 141.574 64.7795 139.922 64.7795ZM146.457 47.7031C146.457 48.2308 146.72 48.6266 147.245 48.8905C147.809 49.1167 148.954 49.2298 150.682 49.2298C152.372 49.2298 153.498 49.1167 154.062 48.8905C154.625 48.6643 154.907 48.2685 154.907 47.7031C154.907 47.1754 154.625 46.7795 154.062 46.5156C153.498 46.2518 152.39 46.1198 150.738 46.1198C148.973 46.1198 147.809 46.2518 147.245 46.5156C146.72 46.7795 146.457 47.1754 146.457 47.7031Z" fill="#3B4882"/>
<path d="M91.7287 95.6325C90.5508 95.6325 89.6134 95.3068 88.9166 94.6554C88.2434 94.004 87.9071 93.0513 87.9071 91.7965V86.694C87.9071 84.1365 88.2918 82.1947 89.0608 80.8676C89.8297 79.5405 90.8032 78.5877 91.9811 78.0087L91.8008 77.3211H91.1879C90.0821 77.3211 89.205 76.9711 88.556 76.2717C87.9313 75.5479 87.6068 74.5708 87.5826 73.3404C87.5584 72.1343 87.871 71.1691 88.52 70.4453C89.1932 69.7216 90.0821 69.3597 91.1879 69.3597H103.807C106.378 69.3597 107.664 70.5658 107.664 72.9785C107.664 74.0642 107.352 74.9327 106.727 75.5841C106.102 76.2355 105.129 76.5612 103.807 76.5612H96.7762C95.8867 76.5612 95.4422 77.0797 95.4422 78.1173V80.7229C96.5717 80.409 97.7496 80.0472 98.9755 79.6372C100.201 79.2273 101.379 79.022 102.509 79.022C103.71 79.022 104.636 79.3234 105.285 79.9267C105.958 80.5057 106.294 81.3986 106.294 82.6047C106.294 83.787 105.958 84.6793 105.285 85.2826C104.636 85.8616 103.71 86.163 102.509 86.1873C101.379 86.2116 100.189 86.0307 98.9394 85.6445C97.7136 85.2346 96.5357 84.8727 95.4062 84.5588L95.3701 91.7965C95.3701 93.0513 95.0338 94.004 94.3606 94.6554C93.7117 95.3068 92.8346 95.6325 91.7287 95.6325ZM112.488 95.6325C111.31 95.6325 110.42 95.3187 109.82 94.6916C109.243 94.0645 108.954 93.2803 108.954 92.3394V71.3501C108.954 70.3125 109.243 69.4564 109.82 68.7807C110.42 68.0812 111.31 67.7312 112.488 67.7312C113.545 67.7312 114.362 68.0812 114.939 68.7807C115.516 69.4564 115.804 70.2887 115.804 71.2777V92.3394C115.804 93.2803 115.516 94.0645 114.939 94.6916C114.362 95.3187 113.545 95.6325 112.488 95.6325ZM126.704 95.7049C123.892 95.7049 121.645 94.8726 119.962 93.2079C118.304 91.5189 117.475 89.1429 117.475 86.0788C117.475 84.197 117.859 82.5442 118.628 81.1209C119.397 79.6977 120.467 78.5877 121.837 77.7916C123.231 76.9711 124.853 76.5612 126.704 76.5612C128.771 76.5612 130.49 76.9711 131.86 77.7916C133.23 78.5877 134.251 79.6977 134.925 81.1209C135.621 82.5442 135.97 84.197 135.97 86.0788C135.97 89.1429 135.201 91.5189 133.663 93.2079C132.148 94.8726 129.829 95.7049 126.704 95.7049ZM121.765 85.4636C121.765 86.2116 122.137 86.742 122.883 87.0559C123.627 87.3454 124.902 87.4901 126.704 87.4901C128.507 87.4901 129.781 87.3454 130.526 87.0559C131.271 86.742 131.644 86.2116 131.644 85.4636C131.644 84.7398 131.271 84.2332 130.526 83.9436C129.781 83.6541 128.507 83.5094 126.704 83.5094C124.902 83.5094 123.627 83.6541 122.883 83.9436C122.137 84.2332 121.765 84.7398 121.765 85.4636ZM144.783 95.6325C143.389 95.6325 142.248 95.1739 141.358 94.2574C140.493 93.3408 139.7 91.8327 138.979 89.7338L136.239 81.5552C135.926 80.6386 135.914 79.7096 136.203 78.7687C136.491 77.8278 137.152 77.1883 138.186 76.8507C139.147 76.5131 140.024 76.5369 140.818 76.9231C141.611 77.3093 142.163 77.9725 142.476 78.9134L145.432 87.7796C145.769 88.8172 146.117 89.5167 146.478 89.8786C146.839 90.2161 147.319 90.2885 147.92 90.0957C148.425 89.9266 148.738 89.5647 148.857 89.01C149.002 88.431 148.833 87.442 148.353 86.0426L146.875 81.5552C146.562 80.6143 146.55 79.6853 146.839 78.7687C147.151 77.8278 147.824 77.1883 148.857 76.8507C149.819 76.5131 150.696 76.5369 151.489 76.9231C152.283 77.3093 152.835 77.9725 153.148 78.9134L156.176 88.1777C156.368 88.7324 156.669 89.239 157.078 89.6976C157.486 90.1562 158.015 90.2885 158.664 90.0957C159.169 89.9266 159.493 89.589 159.637 89.0824C159.806 88.5758 159.782 87.9849 159.565 87.3092C159.277 86.3926 158.952 85.6688 158.592 85.1379C158.256 84.6069 157.919 84.1489 157.582 83.7627C157.27 83.3765 157.006 82.9666 156.789 82.5323C156.597 82.098 156.477 81.5071 156.429 80.7591C156.381 79.9872 156.537 79.3115 156.897 78.7325C157.282 78.1292 157.787 77.6587 158.412 77.3211C159.061 76.9836 159.77 76.8145 160.539 76.8145C161.717 76.8145 162.666 77.2126 163.387 78.0087C164.132 78.7806 164.505 79.6977 164.505 80.7591C164.505 81.1453 164.444 81.6519 164.324 82.279C164.204 82.9061 164.048 83.4851 163.856 84.016L162.341 87.9606C162.029 88.8291 161.668 89.7219 161.26 90.6385C160.875 91.5313 160.419 92.3512 159.89 93.0993C159.385 93.8474 158.796 94.4626 158.123 94.9449C157.45 95.4035 156.669 95.6325 155.78 95.6325C154.241 95.6325 153.004 95.2345 152.066 94.4383C151.153 93.6422 150.432 92.3275 149.903 90.4938H149.543C149.23 91.9894 148.713 93.2198 147.992 94.185C147.271 95.1502 146.201 95.6325 144.783 95.6325Z" fill="#3B4882"/>
<path d="M12.9567 66.7225H33.8H12.9567Z" fill="#3B4882"/>
<path d="M12.9567 66.7225H33.8" stroke="#3B4882" stroke-width="5" stroke-linecap="round"/>
<path d="M21.97 75.7697H51.2633H21.97Z" fill="#3B4882"/>
<path d="M21.97 75.7697H51.2633" stroke="#3B4882" stroke-width="5" stroke-linecap="round"/>
<path d="M12.9567 84.8168H42.8133H12.9567Z" fill="#3B4882"/>
<path d="M12.9567 84.8168H42.8133" stroke="#3B4882" stroke-width="5" stroke-linecap="round"/>
<defs>
<linearGradient id="paint0_linear_124_58" x1="84.5" y1="41.2775" x2="84.5" y2="99.5183" gradientUnits="userSpaceOnUse">
<stop stop-color="#CC99F8"/>
<stop offset="1" stop-color="#8EC5F0"/>
</linearGradient>
</defs>
</svg>
